<?xml version="1.0" encoding="utf-8"?>
<!-- Generator: Adobe Illustrator 25.4.1, SVG Export Plug-In . SVG Version: 6.00 Build 0)  -->
<svg version="1.1" id="Layer_1" xmlns="http://www.w3.org/2000/svg" xmlns:xlink="http://www.w3.org/1999/xlink" x="0px" y="0px"
	 viewBox="0 0 17.1 53.8" style="enable-background:new 0 0 17.1 53.8;" xml:space="preserve">
<g transform="matrix( 1, 0, 0, 1, 0,0) ">
	<g>
		<g id="a">
			<path d="M17.1,0h-2.5c-2.9,0-5,0.8-6.3,2.4c-1.3,1.6-2,4.5-2,8.8v3c0,3.8-0.5,6.5-1.5,8S2.2,24.4,0,24.4v5c2.2,0,3.8,0.8,4.8,2.2
				c1,1.5,1.5,4.2,1.5,8v3c0,4.3,0.7,7.2,2,8.8c1.3,1.6,3.4,2.3,6.3,2.3h2.5v-4h-1c-1.9,0-3.2-0.4-3.9-1.2c-0.7-0.8-1.1-2.8-1.1-5.8
				v-2c0-4.2-0.5-7.3-1.5-9.4c-1-2-2.6-3.5-5-4.5c2.4-1,4-2.5,5-4.5c1-2,1.5-5.1,1.5-9.3v-2c0-3.1,0.4-5,1.1-5.9
				c0.7-0.8,2-1.2,3.9-1.2h1V0z"/>
		</g>
	</g>
</g>
</svg>
